<?xml version="1.0" encoding="utf-8"?>
<!-- Generator: Adobe Illustrator 16.0.0, SVG Export Plug-In . SVG Version: 6.00 Build 0)  -->
<!DOCTYPE svg PUBLIC "-//W3C//DTD SVG 1.1//EN" "http://www.w3.org/Graphics/SVG/1.1/DTD/svg11.dtd">
<svg version="1.1" id="Layer_1" xmlns="http://www.w3.org/2000/svg" xmlns:xlink="http://www.w3.org/1999/xlink" x="0px" y="0px"
	 width="2394.962px" height="736.264px" viewBox="0 0 2394.962 736.264" enable-background="new 0 0 2394.962 736.264"
	 xml:space="preserve">
<g id="NMizcq_1_">
	<g>
		<path fill-rule="evenodd" clip-rule="evenodd" fill="#3AC0C4" d="M276.68,632.586c-18.805-4.273-36.375-9.988-54.102-15.131
			c-22.138-6.421-44.607-9.646-67.683-8.484c-10.12,0.51-20.27,1.154-30.383,0.879c-14.953-0.408-29.801-1.9-42.516-11.146
			c-0.663-0.482-1.255-1.062-2.225-1.893c7.074-2.344,14.184-1.56,21.054-2.561c18.824-2.742,37.62-5.465,54.699-14.591
			c13.13-7.016,14.934-16.85,5.109-27.149c-2.405-2.521-4.854-5.019-7.814-6.953c-1.034-0.676-2.406-1.265-2.342-3.502
			c9.588,0.762,19.131,1.361,28.701,1.182c6.17-0.115,12.187-0.715,18.05-2.771c12.586-4.416,14.62-8.429,11.936-21.465
			c-2.799-13.593-8.366-26.382-11.124-39.979c-0.493-2.432-0.373-3.87,2.097-4.511c15.62-4.052,28.927-12.814,42.631-20.798
			c11.591-6.753,23.358-13.126,36.698-15.909c8.319-1.735,16.138-1.685,23.773,3.098c5.992,3.753,12.191,4.851,18.84-0.26
			c7.264-5.582,16.236-5.378,24.87-3.955c6.494,1.069,11.987,0.215,17.021-4.361c5.886-5.352,13.183-4.316,20.327-3.631
			c7.607,0.73,15.219,1.137,22.76-0.746c2.605-0.651,3.895-1.88,3.527-4.837c-0.881-7.112-4.363-12.349-10.577-15.855
			c-8.332-4.703-17.772-6.13-26.701-9.065c-3.639-1.197-7.205-2.54-10.428-4.607c-1.298-0.833-3.488-1.777-2.747-3.562
			c0.729-1.753,3.028-0.95,4.547-0.722c4.386,0.659,8.669,2.063,14.101,1.729c-6.286-5.519-13.427-7.425-20.309-9.814
			c-3.34-1.159-6.841-1.308-10.343-1.062c-3.938,0.275-4.738,1.545-3.209,5.291c0.991,2.43-1.377,2.108-2.084,2.2
			c-4.421,0.568-8.904,1.325-13.323,1.111c-19.598-0.952-38.371-6.14-57.104-11.535c-14.781-4.258-29.76-7.195-45.21-8.311
			c-18.122-1.309-36.406-1.665-54.23-5.812c-10.574-2.461-20.515-6.451-29.131-13.279c-1.66-1.315-3.34-2.605-5.012-3.907
			c0.303-0.497,0.605-0.994,0.907-1.491c9.342,0,18.684,0,29.479,0c-5.206-3.501-2.457-4.313,0.002-5.544
			c6.632-3.317,13.789-4.839,21.008-5.572c17.732-1.802,35.396-0.239,53.061,1.625c7.897,0.834,15.842,1.291,23.749,2.175
			c12.587,1.408,25.243,1.131,37.881,1.068c11.354-0.056,22.338-2.145,33.48-6.392c-5.791-5.23-12.566-7.263-19.595-8.624
			c-12.551-2.431-25.375-2.265-38.031-3.853c-9.209-1.156-17.137-5.139-24.75-9.69c-11.216-6.705-22.656-10.406-35.904-7.731
			c-6.93,1.398-13.294-1.577-19.32-4.948c-7.876-4.406-15.13-9.805-24.614-11.166c-9.74-1.397-19.218,0.229-28.745,0.92
			c-12.134,0.88-23.452-0.296-33.536-7.739c-3.586-2.646-4.026-4.969-0.513-8.271c7.576-7.12,17.018-9.19,26.753-10.488
			c13.916-1.855,27.926-1.215,41.875-0.707c6.963,0.254,13.929,0.784,20.897,0.632c15.391-0.334,30.785-0.649,45.108-7.604
			c3.025-1.469,6.074-0.104,8.978,1.433c3.446,1.825,6.818,4.361,11.567,2.688c-1.957-3.819-5.192-6.46-8.25-9.007
			c-12.417-10.34-26.95-15.118-43.009-15.494c-5.822-0.137-7.487-1.655-7.734-7.642c-0.083-1.996-0.599-3.235-2.741-3.307
			c-15.712-0.523-29.037-7.807-41.621-15.985c-21.964-14.275-45.789-23.119-71.342-28.188c-11.186-2.22-22.054-5.917-31.415-12.957
			c-2.423-1.821-4.509-3.934-6.463-6.21c-2.516-2.932-1.878-4.311,2.021-4.715c6.907-0.716,13.585-2.489,20.176-4.708
			c4.67-1.571,8.807-3.887,12.089-7.5c1.843-2.029,3.85-2.666,6.533-2.833c34.116-2.115,68.271-0.025,102.383-1.049
			c17.883-0.536,36.074-2.054,52.037-10.645c10.007-5.385,19.849-6.515,30.506-6.062c2.93,0.125,6.198,0.699,6.209-3.891
			c0.001-0.13,0.202-0.255,0.302-0.389c1.615-2.16,5.018-3.229,4.357-6.778c-0.676-3.635-3.426-5.97-5.737-8.532
			c-10.402-11.53-24.373-16.757-38.541-21.516c-8.592-2.885-17.314-5.381-25.985-8.03c-1.388-0.424-3.419-0.615-3.445-2.156
			c-0.035-1.99,2.295-2.166,3.76-2.629c1.383-0.437,3.019-0.019,4.453-0.355c1.892-0.444,3.967-0.909,4.375-3.387
			c0.36-2.18-0.929-3.433-2.552-4.441c-7.608-4.726-16.292-6.168-24.82-8.081c-9.791-2.196-19.89-3.274-29.023-7.858
			c-2.21-1.109-4.855-2.041-6.299-3.853c-3.531-4.428-8.068-4.591-12.974-4.293c-9.212,0.56-18.177-0.735-26.778-4.07
			c-4.558-1.768-8.606-4.28-10.576-9.182c-1.849-4.602-1.23-5.485,3.588-5.771c17.158-1.018,33.509,2.898,49.761,7.724
			c15.175,4.506,30.356,8.988,45.92,12.066c9.643,1.907,19.184,0.788,28.566-0.961c10.39-1.937,20.553,0.059,30.768,0.598
			c11.549,0.609,23.048,2.263,34.548,3.632c12.469,1.485,24.909,3.205,37.372,4.749c11.814,1.464,23.654,2.733,35.461,4.263
			c23.419,3.035,47.021,4.475,70.227,9.434c13.362,2.856,27.071,3.451,39.529-4.349c1.808-1.132,3.35-0.622,5.035,0.212
			c7.273,3.598,14.545,7.202,21.279,11.762c2.837,1.92,5.901,2.823,9.296,2.912c14.13,0.367,28.269,0.551,42.386,1.211
			c54.405,2.542,108.846,1.856,163.277,1.952c15.331,0.027,30.675,0.251,45.99-0.26c21.925-0.732,43.848-1.415,65.774-2.063
			c13.923-0.412,27.848-1.305,41.774-1.951c18.707-0.868,37.379-2.472,56.068-3.71c11.752-0.778,23.526-1.266,35.262-2.238
			c16.991-1.407,33.951-3.192,50.935-4.697c6.445-0.571,12.916-0.883,19.381-1.193c29.116-1.399,58.258-0.787,87.388-1.144
			c18.431-0.226,36.889-0.736,55.268-2.047c29.893-2.132,59.453-6.476,87.714-17.127c1.833-0.69,3.548-0.712,5.34-0.728
			c34.146-0.283,67.516-5.234,99.771-16.718c4.325-1.54,8.81-1.66,13.184-2.027c16.359-1.373,32.771-2.106,49.146-3.302
			c22.337-1.631,44.674-3.122,67.055-4.109c12.426-0.548,24.845-1.385,37.279-1.974c26.05-1.233,52.094-2.34,78.163-3.119
			c11.129-0.333,22.27-0.336,33.393-0.791c49.786-2.035,99.592-0.64,149.388-0.864c16.293-0.073,32.593,0.588,48.884,1.111
			c14.432,0.463,28.863,1.057,43.28,1.852c22.688,1.251,45.376,2.583,68.045,4.144c15.198,1.046,30.401,2.223,45.537,3.926
			c19.714,2.218,39.454,4.188,59.147,6.639c22.126,2.754,44.198,5.845,66.205,9.344c23.951,3.808,47.785,8.31,71.526,13.33
			c30.355,6.419,60.4,14.015,90.209,22.582c3.104,0.892,6.147,1.993,9.149,3.487c-8.95-0.055-17.721,1.426-26.571,1.429
			c-20.768,0.007-41.431,2.031-62.018,4.249c-26.269,2.829-52.445,6.566-78.571,10.625c-23.664,3.676-47.385,7.06-71.156,9.952
			c-15.607,1.897-31.246,3.733-47.002,4.349c-4.612,0.181-9.237,0.841-13.891,0.911c-2.514,0.038-4.146,1.908-5.877,3.408
			c-0.73,0.633-1.201,1.574-1.761,2.395c-9.13,13.392-5.246,21.811,10.534,23.19c13.684,1.197,27.363,2.493,41.008,4.064
			c5.562,0.64,11.06,1.936,15.26,6.294c2.547,2.644,6.289,1.987,9.422,2.452c26.464,3.924,53.036,7.144,79.456,11.331
			c25.438,4.031,50.663,9.224,74.386,19.846c2.087,0.935,4.133,1.959,6.59,3.129c-2.219,2.838-5.264,2.205-7.5,2.549
			c-13.871,2.128-27.776,1.317-41.662-0.365c-10.177-1.233-20.427-1.931-30.559-3.441c-8.243-1.229-16.598-1.514-24.783-1.558
			c-13.464-0.073-27.166,0.248-38.847,9.261c-6.519,5.03-13.502,9.512-21.233,12.81c-6.707,2.862-13.73,3.86-20.73,4.452
			c-20.039,1.695-40.178,1.457-60.255,2.32c-17.022,0.732-34.09,2.548-48.935,12.447c-4.348,2.899-7.771,6.76-11.151,10.652
			c-1.481,1.707-1.639,3.347,0.349,5.123c3.717,3.323,7.876,5.484,12.884,5.613c7.972,0.204,15.934-0.356,23.888-0.581
			c10.062-0.283,20.183,1.022,30.26,1.858c9.064,0.751,18.099,1.856,27.156,2.695c14.678,1.359,29.357,2.706,44.049,3.894
			c5.287,0.427,10.602,0.689,15.889,0.978c19.27,1.05,38.576,1.622,57.877,1.076c8.1-0.229,16.153-1.644,23.885-4.03
			c19.27-5.948,38.207-4.418,57.087,1.608c12.19,3.891,24.249,8.271,37.601,9.967c-1.855,2.997-4.718,3.276-6.939,4.238
			c-27.377,11.845-55.593,20.948-85.226,25.116c-7.372,1.036-14.909,2.424-22.233,1.86c-7.952-0.611-12.518,3.317-16.556,8.729
			c-3.674,4.924-6.177,10.56-8.259,16.357c-0.839,2.334-0.379,3.842,1.81,5.316c7.215,4.861,15.386,6.901,23.768,7.815
			c15.326,1.672,30.835,1.009,46.135,3.146c14.232,1.987,28.416,4.326,42.651,6.295c8.016,1.108,16.088,1.807,24.139,2.638
			c3.58,0.369,7.276-0.428,10.88,0.909c-0.145,1.501-1.444,1.508-2.114,1.66c-7.428,1.683-13.838,5.309-19.752,9.967
			c-13.74,10.821-27.916,20.519-47.993,16.882c2.34,3.128,4.55,3.792,6.604,4.552c3.715,1.373,7.507,2.538,11.251,3.837
			c7.772,2.694,10.04,5.988,8.24,13.825c-0.761,3.311,0.304,3.881,2.879,4.821c13.355,4.879,27.303,6.43,41.314,7.532
			c22.964,1.806,46.108,1.546,68.898,5.189c15.078,2.41,29.83,6.326,41.336,17.475c4.671,4.526,4.557,4.507-1.133,7.803
			c-14.279,8.272-30.063,11.972-46.072,14.396c-22.983,3.481-44.506,10.855-64.992,21.675
			c-16.177,8.544-33.221,14.823-51.426,17.194c-6.558,0.854-13.34,0.621-19.968,0.156c-11.973-0.841-23.36,1.246-34.677,4.969
			c-9.707,3.194-19.564,6.078-30.213,6.331c1.362,1.631,3.414,0.182,5.086,1.56c-5.381,4.454-11.541,6.616-17.909,8.262
			c-14.189,3.665-28.721,4.278-43.274,5.133c-16.792,0.985-33.773,1.116-49.947,6.839c-5.34,1.889-10.436,4.217-14.52,8.277
			c-2.036,2.024-4.412,2.682-7.24,2.62c-5.989-0.129-11.983-0.039-18.949-0.039c4.805,3.913,9.909,4.154,14.692,5.15
			c5.326,1.109,10.744,1.835,15.552,4.635c0.994,0.579,2.414,1.055,2.805,1.943c3.499,7.961,11.286,7.229,17.701,8.276
			c17.506,2.86,35.206,3.865,52.949,4.428c19.068,0.605,38.143,1.502,57.164,2.942c13.497,1.023,26.98,2.867,39.964,6.983
			c2.841,0.9,5.305,0.114,7.681-0.438c12.156-2.825,24.566-3.513,36.904-4.547c10.416-0.874,20.942-1.298,31.376-0.867
			c17.349,0.718,34.811,0.918,51.809,5.152c1.894,0.472,5.397-0.439,5.427,3.019c0.024,3.027-1.466,5.67-4.09,7.52
			c-4.365,3.075-9.489,2.631-14.006,1.725c-8.141-1.633-15.362,0.831-22.743,3.154c-14.158,4.457-27.815,10.549-42.417,13.535
			c-16.533,3.382-32.829,2.846-48.445-4.392c-2.365-1.097-4.463-1.438-7.059-0.225c-11.532,5.395-23.653,8.396-36.473,8.204
			c-2.223-0.034-2.225,0.029-5.949,2.018c5.102,0,9.217,0,14.354,0c-4.298,4.724-9.294,5.5-13.881,6.844
			c-5.534,1.621-11.209,2.781-16.849,4.023c-14.309,3.151-20.832,17.894-8.824,30.16c13.572,13.865,29.73,23.789,47.55,31.027
			c19.698,8.002,40.692,10.911,61.389,15.011c14.554,2.883,29.304,5.331,42.474,12.894c5.48,3.146,9.865,7.175,12.072,14.148
			c-6.507-1.231-12.445-2.337-18.377-3.479c-15.55-2.996-31.169-5.555-46.858-7.709c-16.196-2.223-32.354-4.729-48.571-6.786
			c-12.967-1.645-25.996-2.788-38.995-4.181c-14.976-1.604-29.938-3.336-44.925-4.827c-12.029-1.196-24.09-2.068-36.129-3.169
			c-13.683-1.25-27.342-2.812-41.042-3.817c-8.598-0.631-17.179-1.398-25.768-2.108c-20.763-1.716-41.602-1.562-62.376-0.889
			c-20.262,0.656-40.541,1.979-60.783,1.417c-16.306-0.452-32.604-0.721-48.896-0.488c-15.903,0.227-31.699,2.626-47.567,3.491
			c-14.434,0.787-28.938,1.122-43.385-0.437c-0.66-0.071-1.325-0.146-1.987-0.143c-18.971,0.11-37.918-1.908-56.884-0.933
			c-12.215,0.628-24.409,1.859-36.477,4.005c-13.532,2.405-27.199,3.609-40.855,5.041c-19.485,2.043-39.032,2.94-58.569,3.639
			c-49.607,1.772-99.253,1.458-148.875,0.887c-30.072-0.347-60.121,0.415-90.18,0.526c-19.557,0.073-39.152,1.312-58.651,2.967
			c-27.325,2.318-54.472,6.212-81.569,10.548c-16.615,2.658-33.312,5.002-50.129,6.438c-15.21,1.298-30.43,2.114-45.655,3.061
			c-15.467,0.961-30.678,4.346-45.921,7.243c-17.54,3.335-35.168,5.81-53.089,6.757c-25.478,1.346-50.948-0.032-76.39,0.945
			c-14.698,0.564-29.416,1.383-44.04,3.589c-11.115,1.676-22.388,2.475-33.62,3.159c-24.673,1.502-49.351,3.279-74.052,3.842
			c-28.481,0.647-56.993,0.37-85.486,0.017c-32.408-0.403-64.156-5.339-95.171-14.975c-15.296-4.752-31.017-4.521-46.805-3.01
			c-15.43,1.478-30.473-0.874-45.005-5.99c-18.026-6.346-36.619-8.664-55.579-8.743c-15.136-0.062-30.262,0.179-45.399,0.682
			c-30.78,1.023-60.499-4.589-89.518-14.915c-18.863-6.712-38.104-12.299-58.605-10.887c-10.608,0.73-20.471,3.532-29.46,9.193
			c-2.253,1.419-4.212,1.857-6.879,0.947c-11.506-3.926-23.564-4.771-35.547-6.117c-14.915-1.675-30.037-2.838-42.873-12.022
			c-0.405-0.289-0.875-0.514-1.212-0.867c-2.845-2.978-7.046-6.36-6.148-10.054c0.604-2.486,6.221-0.983,9.531-0.765
			c26.799,1.774,52.422-4.624,78.143-10.717c17.012-4.029,33.934-9.262,51.693-8.361c10.924,0.555,21.782,2.401,32.772,1.872
			C263.147,640.787,270.209,638.539,276.68,632.586z M813.942,335.126c-1.544-2.881-1.354-5.461-1.021-8.164
			c0.67-5.435,1.189-10.894,1.551-16.356c0.22-3.306-0.297-5.061-4.944-4.759c-10.777,0.697-21.666,0.701-32.451,0.04
			c-18.078-1.107-36.103-2.926-54.252-2.996c-4.205-0.016-5.978,1.617-7.218,5.029c-5.164,14.2-5.225,28.591-1.576,43.097
			c1.693,6.735,3.159,7.896,10.307,8.1c5.328,0.152,10.664,0.034,15.997,0.032c1.999,0,3.94,0.37,5.913,0.667
			c3.994,0.602,5.437,2.322,5.379,6.552c-0.19,13.989-0.454,28.017,0.341,41.971c0.799,14.024-0.287,27.842-1.862,41.706
			c-0.457,4.023-2.537,5.129-6.315,5.168c-11.824,0.124-23.583-1.782-35.412-1.04c-2.695,0.169-3.417-1.431-3.805-3.564
			c-2.943-16.188-2.346-32.459-0.666-48.681c1.34-12.936,2.188-25.881,1.421-38.838c-0.521-8.799-2.596-17.394-7.045-25.196
			c-7.668-13.448-17.623-24.9-29.754-34.545c-10.037-7.979-21.081-12.457-34.105-11.208c-10.901,1.045-21.801,2.145-32.722,2.944
			c-15.911,1.166-31.637,3.457-46.864,8.233c-17.125,5.371-32.756,13.122-42.002,29.752c-3.119,5.609-3.108,5.783,2.685,8.059
			c13.595,5.341,27.728,8.805,41.911,12.139c2.994,0.703,5.204,0.126,7.884-1.163c15.188-7.305,31.134-10.143,47.853-6.909
			c9.598,1.856,16.755,9.211,17.376,17.412c0.378,5.003-0.089,5.301-4.775,3.203c-2.041-0.914-4.025-2.727-6.404-0.877
			c-0.441,0.344-0.91,1.339-0.723,1.696c1.271,2.432,3.803,2.102,6.007,2.627c3.312,0.79,7.059,0.871,8.885,4.63
			c0.794,1.634,1.046,3.298-0.213,4.652c-1.305,1.405-2.426-0.217-3.479-0.728c-16.626-8.058-34.057-9.327-51.983-6.149
			c-17.328,3.072-33.032,10.4-48.816,17.897c-11.073,5.259-17.469,13.112-21.205,24.464c-11.654,35.404-1.396,67.983,31.453,86.327
			c20.256,11.312,42.052,13.342,64.612,8.319c9.052-2.016,17.496-5.67,26.105-9.71c-1.081,7.454,1.641,12.165,6.85,12.164
			c24.795-0.005,49.557,1.341,74.336,1.752c35.962,0.597,71.943,1.11,107.887-0.786c12.929-0.682,25.821-2.056,38.733-3.07
			c3.466-0.272,5.134-1.963,5.755-5.476c2.485-14.06,2.472-28.073-0.083-42.106c-0.532-2.922-1.667-4.5-5.165-4.381
			c-8.488,0.289-16.998-0.063-25.489,0.175c-3.162,0.089-4.358-1.064-4.92-3.986c-1.385-7.196-1.885-14.486-2.212-21.76
			c-0.546-12.145,0.853-24.238,2.024-36.303c0.306-3.144-0.29-7.009,3.556-9.193c20.942-11.896,43.06-19.739,67.452-19.698
			c6.943,0.012,6.91,0.252,6.984,6.991c0.316,28.757-1.364,57.586,2.828,86.209c2.062,14.086,6.347,27.404,14.42,39.319
			c2.035,3.005,4.5,4.784,8.309,5.456c17.568,3.1,35.188,4.847,52.992,2.831c9.903-1.121,19.652-3.102,28.773-7.365
			c1.575-0.736,3.499-1.187,3.492-3.656c-0.045-15.497-0.031-30.994-0.011-46.491c0.003-1.973-0.655-2.784-2.701-2.046
			c-6.44,2.322-13.192,1.071-19.766,1.733c-5.664,0.571-8.423-2.014-10.756-6.632c-5.415-10.724-6.095-22.372-6.54-33.913
			c-0.662-17.127,1.739-34.157,2.906-51.225c0.249-3.642,1.24-6.379,5.987-5.438c2.397,0.475,4.922-0.201,7.406-0.57
			c4.732-0.703,9.618-2.512,14.287-1.077c4.39,1.348,4.233-0.661,4.206-3.723c-0.132-14.827-0.24-29.656-0.154-44.483
			c0.02-3.276-0.973-4.305-4.275-4.24c-10.161,0.195-20.329-0.016-30.492,0.125c-2.891,0.04-3.96-0.719-4.28-3.816
			c-1.343-12.982,0.348-25.867,0.837-38.785c0.408-10.768-0.249-21.389-2.881-31.938c-2.011,0.593-3.192,1.757-4.513,2.766
			c-20.313,15.52-39.761,32.272-62.525,44.319c-2.084,1.104-2.822,2.435-2.872,4.667c-0.089,4.036,0.674,7.858,1.78,11.734
			c1.622,5.686-0.591,8.436-5.585,7.913c-21.429-2.241-40.772,2.857-57.798,16.357C829.891,318.368,822.617,327.09,813.942,335.126z
			 M1555.864,417.743c-4.655-13.162-14.98-20.182-27.442-24.748c-4.504-1.65-9.068-3.154-13.666-4.521
			c-13.061-3.884-13.042-3.812-22.559,6.415c-12.012,12.909-25.38,22.984-43.895,25.078c-15.136,1.712-24.654-1.463-32.188-14.057
			c-9.467-15.824-12.425-33.26-10.29-51.314c1.966-16.624,11.668-27.466,27.842-32.108c7.063-2.028,14.364-2.314,21.645-1.317
			c15.481,2.12,28.694,8.254,37.186,22.073c1.439,2.343,2.922,3.099,5.541,3.069c11.164-0.127,22.332-0.139,33.495,0.002
			c2.938,0.037,3.918-0.695,4.09-3.857c0.664-12.266,1.831-24.503,2.624-36.763c0.86-13.321,0.088-26.593-1.896-39.785
			c-0.28-1.858-0.536-4.08-3.497-3.863c-10.163,0.746-20.258-1.492-30.407-0.846c-6.44,0.41-13.327,0.42-18.303,5.148
			c-2.77,2.631-4.698,2.237-7.747,1.201c-27.926-9.495-55.47-9.27-81.922,4.786c-45.007,23.915-69.696,80.354-56.641,129.51
			c5.599,21.081,15.092,39.722,35.9,50.101c2.067,1.031,3.929,2.479,5.878,3.746c30.092,19.567,62.046,28.607,97.889,18.543
			c24.919-6.997,46.93-18.262,63.396-38.871c1.574-1.971,2.397-4.779,5.231-5.667c3.411,7.569,2.051,15.48,2.413,23.237
			c0.225,4.802-1.626,9.499-0.312,14.375c0.511,1.895,0.928,2.771,3.075,2.906c6.783,0.432,13.538,1.467,20.322,1.679
			c13.469,0.422,26.927,0.159,40.411-0.495c20.107-0.975,40.26-1.088,60.396-1.363c3.351-0.047,4.183-1.112,4.153-4.321
			c-0.147-16.164-0.159-32.331,0.007-48.494c0.034-3.367-1.081-4.226-4.271-4.137c-7.322,0.206-14.664,0.28-21.978-0.04
			c-3.105-0.137-6.925-0.241-7.026-5.137c-0.134-6.479-0.639-12.952-0.655-19.429c-0.06-23.308-0.259-46.619,0.669-69.919
			c0.736-18.464,0.18-36.938,0.799-55.421c0.959-28.614,0.308-57.268-0.585-85.897c-0.06-1.917-0.363-2.902-2.651-3.21
			c-6.09-0.817-12.161-1.838-18.312-1.855c-22.324-0.064-44.649-0.024-66.975-0.026c-9.071-0.001-10.257,0.973-11.922,9.921
			c-0.151,0.812-0.038,1.672-0.184,2.485c-2.027,11.28,0.595,22.573-0.116,33.851c-0.169,2.687,1.022,4.424,3.164,5.744
			c4.238,2.615,8.509,5.181,12.698,7.871c5.66,3.634,10.967,8.957,10.757,15.234c-0.433,12.997,0.015,25.92,0.565,38.859
			c0.473,11.117,1.004,22.255,2.175,33.313c2.438,23.038,3.391,46.122,2.593,69.248c-0.267,7.749-1.872,15.457-2.959,23.17
			c-0.367,2.602-1.491,3.962-4.246,2.009c-2.951-2.092-5.599-1.256-7.984,1.156C1558.982,416.188,1557.837,417.435,1555.864,417.743
			z M1928.758,375.511c-8.843,0.601-16.936-1.647-24.953-4.611c-2.552-0.942-3.434-2.145-3.572-4.958
			c-0.636-12.919-2.107-25.743-5.742-38.23c-13.379-45.957-46.454-71.212-91.107-75.391c-15.555-1.456-31.153-0.001-46.654,2.744
			c-24.036,4.256-42.906,16.09-56.668,36.22c-10.186,14.898-17.419,31.318-24.866,47.639c-0.81,1.773-0.756,3.549-0.786,5.366
			c-0.238,14.483,0.478,28.881,3.069,43.185c6.532,36.058,25.596,62.204,60.162,75.841c25.839,10.193,52.548,12.803,80.17,9.122
			c22.503-2.998,41.921-12.104,59.132-26.396c4.19-3.479,8.262-7.26,11.275-11.951c0.923-1.437,1.925-2.628,0.369-4.392
			c-6.042-6.852-10.887-14.724-17.824-20.821c-9.471-8.324-20.801-12.343-32.756-3.033c-2.879,2.242-6.018,4.15-9.044,6.202
			c-4.996,3.388-10.302,6.141-16.347,6.988c-10.243,1.436-20.54,2.007-30.773,0.076c-18.013-3.397-30.771-13.288-37.314-30.72
			c-0.853-2.272-0.955-3.641,1.926-4.234c9.426-1.943,18.926-3.464,28.522-3.937c19.994-0.985,39.878,0.979,59.713,3.117
			c20.973,2.262,41.873,5.449,63.054,2.817C1908.798,384.779,1919.355,381.943,1928.758,375.511z M1026.518,482.885
			c0,4.666,0.307,9.358-0.085,13.991c-0.404,4.786,0.707,7.183,6.097,6.367c2.398-0.362,4.948,0.309,7.432,0.474
			c10.639,0.708,21.278,1.15,31.729-1.594c3.714-0.975,7.686-2.188,9.564-5.752c1.749-3.315,3.425-2.714,6.233-1.692
			c21.067,7.671,42.63,9.538,64.541,4.364c16.353-3.861,30.806-11.177,41.878-24.333c14.096-16.751,16.389-36.362,14.434-57.153
			c-0.742-7.902-4.371-14.018-10.101-19.289c-3.045-2.802-6.368-5.769-8.168-9.361c-4.281-8.547-12.02-11.378-20.192-13.768
			c-18.892-5.525-38.604-5.844-57.876-8.974c-10.353-1.681-20.454-4.068-29.756-9.161c-3.091-1.693-4.331-3.098-1.684-6.689
			c8.647-11.73,19.21-15.268,34.249-9.759c11.5,4.213,22.52,9.731,33.983,14.058c10.171,3.837,20.762,5.855,31.726,3.516
			c3.131-0.669,5.758-1.118,6.116-5.583c1.515-18.863,0.513-37.896,3.807-56.639c0.249-1.42,0.85-3.234-1.761-3.862
			c-12.284-2.954-24.602-5.931-37.338-4.733c-5.502,0.518-10.79,2.535-13.463,8.13c-1.065,2.23-2.326,1.544-4.026,1.006
			c-16.807-5.323-33.912-7.843-51.542-5.3c-17.44,2.516-33.499,8.391-46.635,20.45c-17.867,16.401-23.635,37.074-19.925,60.636
			c1.188,7.547,2.842,14.993,9.58,20.076c4.646,3.506,9.265,6.991,14.487,9.616c15.869,7.975,33.102,11.461,50.241,15.196
			c17.469,3.806,35.045,7.203,51.436,14.727c9.579,4.397,9.738,6.993,0.977,13.398c-0.134,0.098-0.284,0.174-0.419,0.271
			c-10.198,7.365-21.625,7.957-33.365,5.587c-14.478-2.924-27.801-8.303-36.268-21.312c-2.3-3.534-5.101-4.744-8.589-4.317
			c-9.139,1.121-18.295,0.789-27.421,0.545c-4.297-0.115-5.322,1.844-5.888,5.267
			C1027.703,448.373,1026.475,465.578,1026.518,482.885z M1345.516,464.381c0.361-10.776-0.068-20.321-3.783-29.504
			c-1.094-2.704-2.248-3.901-5.302-3.802c-7.157,0.233-14.327,0.036-21.491,0.096c-2.076,0.018-3.332-0.223-3.496-2.874
			c-0.39-6.289-1.419-12.54-1.78-18.83c-1.61-28.021-2.232-56.101-5.121-84.047c-1.397-13.523-3.568-26.894-7.129-40.022
			c-0.489-1.805-1.066-3.271-3.562-3.299c-10.824-0.121-21.635,0.058-32.388,1.344c-14.664,1.755-29.28,3.945-44.105,3.911
			c-12.583-0.029-13.287,0.7-13.828,13.461c-0.049,1.165-0.048,2.334-0.006,3.499c0.287,7.972,0.724,15.94,0.852,23.915
			c0.114,7.162,0.025,7.412,7.373,6.938c4.776-0.309,9.496-1.78,14.262-1.901c6.34-0.162,9.417,1.635,8.74,8.233
			c-0.22,2.138-0.053,4.33,0.091,6.487c1.07,16.064,1.947,32.142,3.644,48.163c1.397,13.193,2.407,26.429,3.795,39.624
			c0.573,5.452-0.688,6.937-6.219,6.107c-5.957-0.894-11.885-1.132-17.816,0.265c-2.626,0.619-4.017,1.822-3.768,4.793
			c0.54,6.455,0.595,12.958,1.323,19.389c0.761,6.718,1.317,13.507,3.863,19.921c1.125,2.834,2.693,4.055,5.921,3.973
			c15.458-0.393,30.854-1.778,46.205-3.336c23.271-2.361,46.531-4.832,69.852-6.633c2.998-0.232,4.116-0.872,3.938-3.979
			C1345.33,471.955,1345.516,467.613,1345.516,464.381z M1258.103,269.259c9.27,0.191,17.812-2.128,24.933-8.183
			c18.791-15.976,19.248-45.522,1.14-63.818c-11.499-11.617-26.966-13.064-40.149-3.755c-14.339,10.126-22.562,32.566-18.186,49.626
			C1229.736,258.316,1243.389,269.374,1258.103,269.259z M2146.768,572.691c-11.228-0.938-22.391-2.302-33.576-3.472
			c-15.467-1.617-30.996-2.625-46.463-4.239c-20.125-2.1-40.305-3.245-60.513-3.758c-12.284-0.312-24.573-0.137-36.868,0.776
			c-10.47,0.778-20.852,1.954-31.253,3.4c0.303,1.645,1.438,1.533,2.342,1.875c26.243,9.928,53.797,11.912,81.402,12.734
			c22.226,0.662,44.441-0.967,66.622-2.647c12.231-0.927,24.546-1.009,36.718-2.396
			C2132.356,574.147,2139.729,575.168,2146.768,572.691z M2027.871,406.255c8.922-0.419,16.239,0.919,23.617,1.812
			c20.645,2.499,40.928,7.227,61.587,9.646c14.899,1.745,29.786,2.39,44.632,0.192c4.565-0.677,9.459-1.165,14.147-4.321
			c-4.803-1.807-9.022-3.559-13.347-4.994c-30.965-10.281-62.086-19.666-95.389-16.462
			C2050.527,393.338,2039.004,397.166,2027.871,406.255z M1993.908,542.646c-17.812-1.344-35.237-5.167-52.828-7.802
			c-14.318-2.144-28.604-3.224-43.044-2.711c-1.896,0.067-3.87-0.146-3.542,2.704c0.226,1.969-0.967,4.707,2.279,5.212
			c5.204,0.81,10.432,1.488,15.665,2.088c10.199,1.169,20.468,1.551,30.682,2.426
			C1960.18,546.023,1977.016,544.486,1993.908,542.646z M2251.678,340.849c-8.897-3.683-17.255-6.031-25.76-7.395
			c-10.565-1.692-21.21-3.663-32.012-1.338c-5.599,1.205-10.9,2.78-14.533,7.646c-0.795,1.063-1.942,2.215-1.55,3.483
			c0.517,1.667,2.281,0.881,3.482,0.902c11.122,0.199,22.22,0.194,33.335-0.877C2226.609,342.119,2238.646,341.669,2251.678,340.849
			z M300.128,635.886c3.378,1.087,6.724,2.287,10.139,3.24c14.282,3.987,28.906,6.811,42.797,12.118
			c7.095,2.71,13.876,6.227,20.927,9.062c10.342,4.156,17.841,1.555,20.938-7.092C362.988,649.265,332.818,636.177,300.128,635.886z
			 M469.948,323.832c-4.572-0.914-7.943-1.538-11.291-2.267c-18.376-4.001-36.126-10.273-54.299-14.992
			c-11.452-2.974-23.077-5.27-35.471-5.434C387.41,313.569,443.072,326.183,469.948,323.832z M227.108,664.628
			c3.722,1.654,7.448,3.297,11.164,4.966c14.908,6.697,29.149,14.896,44.812,19.896c11.956,3.816,15.629,4.335,21.013,2.844
			C279.33,680.121,255.021,667.492,227.108,664.628z M1654.866,174.692c2.351,27.646,0.806,55.636,8.297,82.709
			c-0.409-21.103,1.765-42.214-0.663-63.249C1661.689,187.129,1660.173,180.244,1654.866,174.692z M337.858,103.399
			c1.51,3.43,3.792,5.078,6.799,5.961c5.235,1.537,10.564,1.129,15.778,0.382c8.863-1.271,17.666-2.655,26.602-0.771
			c0.771,0.163,1.857,0.473,2.147-0.49c0.197-0.652-0.228-1.576-0.559-2.292c-2.929-6.317-8.781-9.021-14.51-12.273
			c-1.146,5.938-2.761,7.15-8.534,8.292C356.524,103.998,347.364,102.45,337.858,103.399z M440.774,295.593
			c5.08,3.621,9.985,6.938,15.246,9.708c2.063,1.087,4.294,1.565,6.54,2.107c7.83,1.888,8.537,1.456,10.87-5.654
			c0.794-2.421,0.059-3.364-2.104-3.532c-4.671-0.36-8.936-2.217-13.377-3.417C452.319,293.284,446.707,291.8,440.774,295.593z
			 M2232.725,416.134c8.156,3.721,16.638,5.893,25.541,5.937c2.781,0.014,5.536-0.986,7.759-2.819c1.33-1.098,2.749-2.33-0.374-3.27
			C2254.704,412.686,2243.783,411.465,2232.725,416.134z M2154.084,680.114c-0.055-0.515-0.109-1.029-0.165-1.544
			c-5.107-1.215-10.261-2.267-15.312-3.685c-6.981-1.961-14.027-3.522-21.216-4.469c-2.603-0.343-5.829-0.004-6.411,2.255
			c-0.749,2.903,2.728,2.867,4.787,3.562c6.601,2.23,13.532,2.892,20.352,3.729C2142.025,680.688,2148.09,680.114,2154.084,680.114z
			 M286.947,480.101c11.211,2.88,22.202,6.974,34.855,5.302C315.567,478.774,294.879,475.712,286.947,480.101z M2065.529,359.331
			c16.979,9.094,29.739,13.427,34.38,6.364c-5.485-1.388-10.973-2.87-16.507-4.15
			C2077.808,360.251,2072.229,358.679,2065.529,359.331z M1947.283,83.492c11.583-0.62,23.325,4.422,34.614-0.917
			C1970.273,81.38,1958.511,75.889,1947.283,83.492z M356.698,682.731c-8.543-6.922-18.049-7.895-27.458-9.173
			C337.558,678.185,345.087,685.095,356.698,682.731z M313.446,373.379c4.812,2.837,9.433,4.787,14.414,5.736
			c1.1,0.209,2.811,2.291,3.542-0.312c0.5-1.776,0.351-3.763-1.749-4.637C324.549,372.041,319.347,371.147,313.446,373.379z
			 M333.349,93.032c-8.646-3.108-23.218-3.968-29.978-1.862C312.985,90.705,322.038,97.696,333.349,93.032z M1923.964,584.412
			c-3.536-3.104-7.385-3.617-10.846-4.964c-1.557-0.605-3.408-0.765-4.312,1.155c-0.902,1.917,0.458,3.272,1.833,4.123
			C1914.83,587.318,1919.066,586.396,1923.964,584.412z M332.498,117.159c6.569,1.509,6.595,1.503,7.942,7.573
			c0.361,1.626,1.319,2.825,2.799,3.134c1.483,0.311,1.614-1.423,2.108-2.322c2.989-5.444,1.135-8.981-4.968-9.335
			C338.205,116.084,335.897,115.712,332.498,117.159z M2058.951,617.384c-10.213,0-20.425,0-30.637,0
			C2038.498,621.024,2048.731,618.144,2058.951,617.384z M1884.916,99.521c-6.863,1.151-13.996-0.214-20.703,2.396
			C1871.124,101.216,1878.595,105.717,1884.916,99.521z M2083.004,672.132c-8.163-4.396-13.598-5.026-17.303-1.976
			C2071.608,669.274,2076.182,674.937,2083.004,672.132z"/>
		<path fill-rule="evenodd" clip-rule="evenodd" fill="#3AC0C4" d="M0,246.253c8.602-0.243,15.826,3.055,23.25,5.789
			c5.859,2.158,11.839,3.706,18.351,2.367c3.609-0.741,6.077-2.387,7.973-5.261c1.396-2.116,3.013-3.946,5.339-5.076
			c5.024-2.441,8.708-1.002,11.07,3.989c1.764,3.728,3.939,7.26,5.9,10.896c0.626,1.16,1.196,2.354,1.718,3.565
			c5.239,12.137,1.834,17.05-11.15,17.732c-17.066,0.896-32.586-3.065-46.141-13.424C9.363,261.522,3.018,255.375,0,246.253z"/>
		<path fill-rule="evenodd" clip-rule="evenodd" fill="#3AC0C4" d="M595.826,452.024c-5.655,1.519-7.966-1.95-9.517-6.954
			c-2.368-7.644-2.541-15.289-0.651-22.991c0.517-2.106,1.414-4.105,4.351-3.778c13.668,1.521,26.439,5.404,37.902,13.336
			c2.848,1.971,2.752,3.491,1.267,6.031c-4.868,8.323-12.791,11.782-21.677,13.304C603.793,451.606,600.02,452.59,595.826,452.024z"
			/>
		<path fill-rule="evenodd" clip-rule="evenodd" fill="#3AC0C4" d="M1810.795,337.364c-14.376-1.118-28.837-1.499-43.32-1.266
			c-5.021,0.08-9.939,0.61-14.789,1.794c-3.374,0.824-4.867-0.27-5.215-3.821c-1.077-10.987,2.861-18.536,12.689-23.699
			c18.542-9.741,46.141-5.997,59.311,8.069c3.765,4.02,5.824,8.745,6.1,14.317c0.125,2.547-0.843,3.733-3.247,3.898
			C1818.512,336.918,1814.696,337.127,1810.795,337.364z"/>
	</g>
</g>
</svg>
